<?xml version="1.0" encoding="utf-8"?>
<!-- Generator: Adobe Illustrator 24.0.1, SVG Export Plug-In . SVG Version: 6.00 Build 0)  -->
<svg version="1.1" id="Layer_1" xmlns="http://www.w3.org/2000/svg" xmlns:xlink="http://www.w3.org/1999/xlink" x="0px" y="0px"
	 viewBox="0 0 1080 1080" enable-background="new 0 0 1080 1080" xml:space="preserve">
<g>
	<path fill="#B59A7D" stroke="#B59A7D" stroke-width="7" stroke-miterlimit="10" d="M526.61,602.12
		c-57.43-33.14-113.58-65.55-170.68-98.5c-3.32,12.49-4.23,24.19-3.45,35.94c0.13,1.89,3.8,3.87,6.16,5.24
		c36.41,21.12,72.88,42.14,109.33,63.19c17.51,10.11,34.93,20.37,52.58,30.21c4.69,2.62,6.87,5.45,6.73,11.08
		c-0.4,15.43-0.14,30.87-0.14,48.3c-54.91-31.67-108.49-62.58-162.07-93.49c-0.44,0.4-0.88,0.79-1.33,1.19
		c12.71,34.11,33.77,62.23,62.89,84.36c29.35,22.3,62.71,34.49,99.9,37.75c0,15.83,0,31.33,0,48.24
		c-83.06-7.29-146.68-45.21-189.78-115.84c-47.02-77.04-38.61-170.25-6.69-226.42c7.36,4.19,14.75,8.36,22.1,12.6
		c56.02,32.33,112.01,64.72,168.09,96.95c4.75,2.73,7.3,5.54,7.06,11.55c-0.55,13.54-0.17,27.12-0.21,40.68
		C527.12,596.99,526.86,598.84,526.61,602.12z"/>
	<path fill="#B59A7D" stroke="#B59A7D" stroke-width="7" stroke-miterlimit="10" d="M552.81,775.74c-0.19-3.87-0.43-6.4-0.43-8.94
		c-0.02-70.7,0.04-141.39-0.12-212.09c-0.01-5.33,1.3-8.6,6.19-11.4c61.69-35.4,123.25-71.03,184.86-106.59
		c2.02-1.17,4.16-2.14,7.42-3.8c34.85,76.57,35.21,152.01-6.96,224.77C701.81,730.1,636.92,768.08,552.81,775.74z M724.16,503.51
		c-3.89,2.14-6.39,3.46-8.84,4.87c-36.04,20.8-72.02,41.7-108.18,62.3c-4.98,2.84-6.84,6-6.8,11.74
		c0.23,42.35,0.12,84.71,0.14,127.07c0,2.31,0.25,4.62,0.44,8c44.76-16.41,78.75-44.24,101.99-84.78
		C725.77,592.8,732.3,550.05,724.16,503.51z"/>
	<path fill="#B59A7D" stroke="#B59A7D" stroke-width="7" stroke-miterlimit="10" d="M737.93,410.81
		c-11.01,6.39-20.65,12-30.29,17.58c-11.53,6.67-23.01,13.43-34.68,19.85c-1.93,1.06-5.27,1.6-7,0.64
		c-14.56-8.05-28.9-16.49-45-25.81c14.44-8.42,27.8-16.21,42.25-24.63c-33.57-28.92-71.58-44.37-114.68-46.28
		c-49.62-2.2-93.46,13.27-132.14,46.12c3.67,2.3,6.39,4.14,9.23,5.78c36.27,20.92,72.61,41.74,108.8,62.81
		c3.83,2.23,6.76,2.39,10.45,0.15c7.93-4.82,15.94-9.53,24.12-13.89c1.98-1.06,5.34-1.67,7.08-0.71
		c14.36,7.94,28.49,16.29,42.67,24.55c0.35,0.2,0.48,0.78,0.94,1.57c-1.24,0.92-2.42,2.01-3.79,2.8
		c-23.68,13.7-47.42,27.31-71.06,41.09c-3.45,2.01-6.16,2.31-9.81,0.2c-62.58-36.26-125.25-72.37-187.89-108.54
		c-1.42-0.82-2.73-1.83-5.17-3.47c46.08-65.47,107.74-103.1,187.84-106.16C617.91,301.1,686.19,338.8,737.93,410.81z"/>
</g>
</svg>
