<?xml version="1.0" encoding="UTF-8"?>
<svg version="1.1" xmlns="http://www.w3.org/2000/svg" width="500" height="500">
<path d="M0 0 C4.48766158 1.32225743 8.0659967 3.1060336 12 5.625 C17.13125486 8.86590945 22.33179653 11.9371284 27.61816406 14.92163086 C32.04528452 17.43102661 36.40178226 20.04419653 40.75 22.6875 C46.3633574 26.09273887 52.04882937 29.21345187 58 32 C58 32.66 58 33.32 58 34 C58.5787085 34.12221924 59.15741699 34.24443848 59.75366211 34.37036133 C62.06800321 35.019061 63.85354094 35.89191524 65.94140625 37.07421875 C66.68535645 37.49203613 67.42930664 37.90985352 68.19580078 38.34033203 C68.97681152 38.78489746 69.75782227 39.22946289 70.5625 39.6875 C72.1755988 40.59537634 73.78887985 41.50292892 75.40234375 42.41015625 C76.57772705 43.07362061 76.57772705 43.07362061 77.77685547 43.75048828 C82.1591003 46.21351585 86.58021861 48.60514048 91 51 C91 51.66 91 52.32 91 53 C91.639375 53.28875 92.27875 53.5775 92.9375 53.875 C95 55 95 55 96 57 C96.09699846 58.93557678 96.13076201 60.87449537 96.1328125 62.8125 C96.13410156 63.97007812 96.13539063 65.12765625 96.13671875 66.3203125 C96.13285156 67.53460938 96.12898438 68.74890625 96.125 70 C96.12886719 71.21429688 96.13273437 72.42859375 96.13671875 73.6796875 C96.13542969 74.83726562 96.13414062 75.99484375 96.1328125 77.1875 C96.13168457 78.25355469 96.13055664 79.31960938 96.12939453 80.41796875 C96 83 96 83 95 85 C91.14065661 84.33042717 88.26349464 82.51125822 84.9375 80.5 C80.63135264 77.89857559 80.63135264 77.89857559 76 76 C76 75.34 76 74.68 76 74 C75.44223877 73.88825439 74.88447754 73.77650879 74.30981445 73.66137695 C71.63851572 72.89649499 69.47656113 71.75968492 67.04296875 70.41796875 C66.09486328 69.89783203 65.14675781 69.37769531 64.16992188 68.84179688 C62.69362305 68.02291992 62.69362305 68.02291992 61.1875 67.1875 C60.21490234 66.65318359 59.24230469 66.11886719 58.24023438 65.56835938 C53.13366521 62.75749903 48.05101977 59.90944374 43 57 C43 56.34 43 55.68 43 55 C42.17773926 54.84349976 42.17773926 54.84349976 41.33886719 54.68383789 C38.47232182 53.84571748 36.17076991 52.54216278 33.578125 51.05859375 C32.55332031 50.47529297 31.52851563 49.89199219 30.47265625 49.29101562 C29.40917969 48.67935547 28.34570312 48.06769531 27.25 47.4375 C26.17105469 46.82197266 25.09210938 46.20644531 23.98046875 45.57226562 C21.31786333 44.05245987 18.65860767 42.52678827 16 41 C15.67 44.96 15.34 48.92 15 53 C16.20462891 53.33644531 16.20462891 53.33644531 17.43359375 53.6796875 C21.96337214 55.35664818 25.91514838 57.66987742 30.0625 60.125 C30.90232422 60.61637451 31.74214844 61.10774902 32.60742188 61.61401367 C38.48960146 65.06872531 44.29743586 68.63151194 50.08984375 72.234375 C53.73572148 74.44637062 57.46255005 76.47456787 61.22265625 78.484375 C65.36637969 80.74564743 69.41422162 83.16531894 73.46875 85.58203125 C76.00107021 87.10466656 76.00107021 87.10466656 79 88 C79 88.66 79 89.32 79 90 C79.55558594 90.10699219 80.11117187 90.21398437 80.68359375 90.32421875 C83.43751651 91.12763972 85.59891402 92.3447527 88.0625 93.8125 C88.91972656 94.31394531 89.77695313 94.81539063 90.66015625 95.33203125 C93.15410946 97.10985766 94.43524877 98.37361239 96 101 C96.34057617 104.02441406 96.34057617 104.02441406 96.29296875 107.515625 C96.28330078 108.76601563 96.27363281 110.01640625 96.26367188 111.3046875 C96.23853516 112.60664063 96.21339844 113.90859375 96.1875 115.25 C96.16719727 117.22613281 96.16719727 117.22613281 96.14648438 119.2421875 C96.11112551 122.49520321 96.06177033 125.747396 96 129 C95.34 129.33 94.68 129.66 94 130 C92.25097656 129.23071289 92.25097656 129.23071289 90.140625 127.97265625 C89.36203125 127.51439453 88.5834375 127.05613281 87.78125 126.58398438 C86.9459375 126.08189453 86.110625 125.57980469 85.25 125.0625 C83.50541484 124.03220233 81.76062192 123.00225637 80.015625 121.97265625 C79.15646484 121.46234863 78.29730469 120.95204102 77.41210938 120.42626953 C74.29381144 118.58243385 71.15061201 116.78808431 68 115 C64.17330866 112.81967587 60.35409989 110.62820476 56.546875 108.4140625 C45.76794171 102.14564369 34.92206874 96.0156197 24 90 C24.83144531 91.44632813 24.83144531 91.44632813 25.6796875 92.921875 C26.41151597 94.19788361 27.1432836 95.47392712 27.875 96.75 C28.23980469 97.38421875 28.60460937 98.0184375 28.98046875 98.671875 C30.7396831 101.74250368 32.46873374 104.80851875 34 108 C34.66 108 35.32 108 36 108 C36 108.66 36 109.32 36 110 C36.66 110 37.32 110 38 110 C38 110.66 38 111.32 38 112 C38.66 112 39.32 112 40 112 C40 112.66 40 113.32 40 114 C40.66 114 41.32 114 42 114 C42 114.66 42 115.32 42 116 C42.66 116 43.32 116 44 116 C44 116.66 44 117.32 44 118 C45.65 118.66 47.3 119.32 49 120 C49 120.66 49 121.32 49 122 C50.01320313 122.37511719 50.01320313 122.37511719 51.046875 122.7578125 C53.88918558 123.95338759 56.5550981 125.35308956 59.265625 126.81811523 C70.81076111 132.96709336 82.0443718 135.38054648 95 137 C95 146.24 95 155.48 95 165 C79.73229184 163.82556091 79.73229184 163.82556091 73.625 162.3125 C72.9144043 162.13952393 72.20380859 161.96654785 71.47167969 161.78833008 C57.12175163 158.12116166 42.98596762 151.72678177 31 143 C31 142.34 31 141.68 31 141 C30.401875 140.71125 29.80375 140.4225 29.1875 140.125 C27 139 27 139 24 137 C24 136.34 24 135.68 24 135 C23.14921875 134.65195312 23.14921875 134.65195312 22.28125 134.296875 C15.9262745 130.68411496 10.62244579 123.29990572 7 117 C7 116.34 7 115.68 7 115 C6.34 115 5.68 115 5 115 C-4.55760076 97.39604304 -12.38504832 80.3736165 -13 60 C-13.05994141 58.37191406 -13.05994141 58.37191406 -13.12109375 56.7109375 C-13.50106435 36.90776404 -9.87599347 17.30844217 0 0 Z " fill="#F5F5F5" transform="translate(151,197)"/>
<path d="M0 0 C13.32076973 25.21431413 17.06892925 55.64086751 9.21875 83.14453125 C5.39167616 95.51686064 -0.02272931 106.15351556 -7 117 C-7.36061523 117.58249512 -7.72123047 118.16499023 -8.09277344 118.76513672 C-9.0082787 120.21207542 -9.99819161 121.61141748 -11 123 C-11.66 123 -12.32 123 -13 123 C-13.24105469 123.556875 -13.48210937 124.11375 -13.73046875 124.6875 C-15.2726121 127.49657342 -17.16015053 129.62698949 -19.3125 132 C-20.07175781 132.845625 -20.83101563 133.69125 -21.61328125 134.5625 C-23.95168019 136.95065211 -26.29260541 139.0408803 -29 141 C-29.66 141 -30.32 141 -31 141 C-31 141.66 -31 142.32 -31 143 C-33.57491622 144.70554239 -36.13733115 146.27845962 -38.8125 147.8125 C-39.59206055 148.26318848 -40.37162109 148.71387695 -41.17480469 149.17822266 C-57.8561762 158.71289984 -75.65806332 164.62074634 -95 165 C-96.54822196 163.45177804 -96.12909849 162.0002738 -96.13371277 159.8445282 C-96.13797775 158.94861969 -96.14224274 158.05271118 -96.14663696 157.12965393 C-96.14618378 156.13900436 -96.14573059 155.1483548 -96.14526367 154.12768555 C-96.14862228 153.09033264 -96.1519809 152.05297974 -96.15544128 150.98419189 C-96.16498515 147.53502219 -96.16689624 144.08590086 -96.16796875 140.63671875 C-96.17117938 138.24876383 -96.1745433 135.86080911 -96.17805481 133.47285461 C-96.18405499 128.4582168 -96.18589384 123.44359623 -96.18530273 118.42895508 C-96.18520116 111.99589655 -96.19884451 105.56294853 -96.21607494 99.12991619 C-96.22718245 94.19462066 -96.22922231 89.25935193 -96.22869301 84.32404518 C-96.22987535 81.95213249 -96.23431131 79.58021915 -96.24202538 77.20831871 C-96.25179825 73.89229943 -96.24895762 70.57652102 -96.24291992 67.26049805 C-96.24853943 66.27592117 -96.25415894 65.2913443 -96.25994873 64.27693176 C-96.25575424 63.37256378 -96.25155975 62.4681958 -96.24723816 61.53642273 C-96.24778293 60.75235393 -96.24832769 59.96828512 -96.24888897 59.16045666 C-95.96406882 56.68810285 -95.30498472 55.11103039 -94 53 C-91.72265625 51.296875 -91.72265625 51.296875 -89.0625 49.75 C-87.74958984 48.96882813 -87.74958984 48.96882813 -86.41015625 48.171875 C-84 47 -84 47 -81 47 C-81 46.34 -81 45.68 -81 45 C-70 39 -70 39 -67.57177734 37.68969727 C-60.72200811 33.98119611 -53.9705769 30.12468656 -47.25 26.1875 C-45.67955933 25.27000977 -45.67955933 25.27000977 -44.07739258 24.33398438 C-37.65762088 20.57703481 -31.26955487 16.77182936 -24.90527344 12.921875 C-20.463248 10.24699763 -15.95035039 7.73098106 -11.37890625 5.28515625 C-9.20229573 4.1092862 -7.06857103 2.88088785 -4.9375 1.625 C-2 0 -2 0 0 0 Z M-17 40 C-18.91722127 40.85222056 -18.91722127 40.85222056 -21.0078125 42.2109375 C-21.8220166 42.70964355 -22.6362207 43.20834961 -23.47509766 43.72216797 C-24.34956543 44.26760254 -25.2240332 44.81303711 -26.125 45.375 C-27.94680475 46.49139985 -29.76973646 47.6059626 -31.59375 48.71875 C-32.50511719 49.275625 -33.41648437 49.8325 -34.35546875 50.40625 C-38.06780365 52.64352125 -41.83564578 54.77159705 -45.625 56.875 C-51.48797186 60.13777033 -57.27123312 63.5055581 -63 67 C-63.89332031 67.52851563 -64.78664063 68.05703125 -65.70703125 68.6015625 C-67.88471011 69.8062062 -67.88471011 69.8062062 -69 71 C-69.09386381 72.8718094 -69.11743804 74.7471806 -69.11352539 76.62133789 C-69.11344986 77.82250748 -69.11337433 79.02367706 -69.11329651 80.26124573 C-69.10813522 81.5685112 -69.10297394 82.87577667 -69.09765625 84.22265625 C-69.09579198 85.56644132 -69.09436812 86.91022707 -69.09336853 88.25401306 C-69.08954402 91.79682277 -69.07971432 95.3395917 -69.06866455 98.88238525 C-69.05844899 102.49515227 -69.0538706 106.10792584 -69.04882812 109.72070312 C-69.03809198 116.8138188 -69.02101636 123.90690674 -69 131 C-59.09339504 128.68244206 -49.5984098 122.64112982 -42 116 C-42 115.34 -42 114.68 -42 114 C-41.34 114 -40.68 114 -40 114 C-40 113.34 -40 112.68 -40 112 C-39.34 112 -38.68 112 -38 112 C-38 111.34 -38 110.68 -38 110 C-37.34 110 -36.68 110 -36 110 C-18.81722405 89.18103494 -14.13902792 67.43846557 -15 41 C-15.66 40.67 -16.32 40.34 -17 40 Z " fill="#F6F6F5" transform="translate(349,197)"/>
<path d="M0 0 C0.99644531 0.47566406 1.99289062 0.95132813 3.01953125 1.44140625 C15.68260341 7.54198064 15.68260341 7.54198064 21 12 C21 12.66 21 13.32 21 14 C21.556875 14.2475 22.11375 14.495 22.6875 14.75 C25.42410913 16.22924818 27.67650869 17.93467439 30 20 C30 20.66 30 21.32 30 22 C30.66 22 31.32 22 32 22 C33.7265625 23.6796875 33.7265625 23.6796875 35.625 25.875 C36.25664062 26.59429687 36.88828125 27.31359375 37.5390625 28.0546875 C39 30 39 30 39 32 C39.66 32 40.32 32 41 32 C41 32.66 41 33.32 41 34 C41.66 34 42.32 34 43 34 C44.65 36.97 46.3 39.94 48 43 C41.87960906 47.16014525 35.67733806 51.0227897 29.25 54.6875 C27.60919293 55.62858888 25.96856263 56.56998604 24.328125 57.51171875 C23.56822266 57.94145996 22.80832031 58.37120117 22.02539062 58.81396484 C19.845593 60.05348827 19.845593 60.05348827 17.296875 61.89453125 C14.04036494 63.46186517 12.44635946 63.03602217 9 62 C6.25963265 60.71493652 3.66659811 59.22729311 1.0625 57.6875 C0.38509766 57.29626953 -0.29230469 56.90503906 -0.99023438 56.50195312 C-2.33534567 55.72429051 -3.67833494 54.94294443 -5.01904297 54.15771484 C-7.99978095 52.41570603 -11.00029032 50.70909143 -14 49 C-12.70480788 45.11442363 -11.39483468 44.88509133 -7.8125 43.0625 C-3.68264066 40.90615417 0.19117311 38.67647295 4 36 C3.67 35.01 3.34 34.02 3 33 C1.6768153 32.62842074 0.34028173 32.30419364 -1 32 C-2.89963105 30.93876916 -4.77241183 29.82887028 -6.625 28.6875 C-19.79430645 20.888202 -31.65204613 18.64653403 -46.875 18.6875 C-48.06480469 18.67138672 -49.25460938 18.65527344 -50.48046875 18.63867188 C-67.9003256 18.62915283 -83.98490169 24.75993624 -98 35 C-98 35.66 -98 36.32 -98 37 C-93.05 39.475 -93.05 39.475 -88 42 C-88 42.66 -88 43.32 -88 44 C-87.41911621 44.12366943 -86.83823242 44.24733887 -86.23974609 44.37475586 C-83.96739367 45.00910233 -82.21534513 45.84842393 -80.1640625 47.00390625 C-79.43582275 47.41125 -78.70758301 47.81859375 -77.95727539 48.23828125 C-77.18762451 48.67527344 -76.41797363 49.11226562 -75.625 49.5625 C-74.83150146 50.00851563 -74.03800293 50.45453125 -73.22045898 50.9140625 C-70.81063847 52.27080957 -68.40489584 53.63454638 -66 55 C-65.2869873 55.40331543 -64.57397461 55.80663086 -63.83935547 56.22216797 C-52.78872121 62.47418586 -52.78872121 62.47418586 -49 65 C-44.39518656 64.59018651 -41.28318587 62.50175384 -37.4765625 60.05859375 C-33.93445763 58.54453946 -31.85404199 58.48508751 -28 59 C-24.34937495 60.63957509 -21.01120243 62.68816027 -17.625 64.8125 C-16.71105469 65.35970703 -15.79710937 65.90691406 -14.85546875 66.47070312 C-8.13715278 70.58854167 -8.13715278 70.58854167 -7 74 C-9.69536177 76.89890168 -12.17091169 78.82530174 -15.6875 80.625 C-20.83713823 83.34228549 -25.86386713 86.22547127 -30.875 89.1875 C-31.60033936 89.61562988 -32.32567871 90.04375977 -33.07299805 90.48486328 C-33.76820557 90.89591309 -34.46341309 91.30696289 -35.1796875 91.73046875 C-35.84452148 92.12024902 -36.50935547 92.5100293 -37.19433594 92.91162109 C-38.7062459 93.82293729 -40.17571869 94.80416368 -41.6328125 95.80078125 C-44.80885052 97.40976421 -46.45979881 97.54365847 -50 97 C-53.0496425 95.5919626 -55.85146355 93.85612788 -58.6875 92.0625 C-60.19000426 91.13444512 -61.69385695 90.20856883 -63.19921875 89.28515625 C-63.85752686 88.87144775 -64.51583496 88.45773926 -65.1940918 88.03149414 C-67.12881932 86.84820994 -67.12881932 86.84820994 -70 86 C-70 85.34 -70 84.68 -70 84 C-70.5671875 83.89042969 -71.134375 83.78085938 -71.71875 83.66796875 C-74.32420053 82.90507142 -76.20909429 81.76722512 -78.5 80.3125 C-82.31006837 77.9600501 -86.15754991 75.88927006 -90.1875 73.9375 C-94.12314521 72.00973485 -97.60640858 69.9950937 -101.07910156 67.34082031 C-103.26471346 65.81522543 -105.51571374 64.57982366 -107.8671875 63.32421875 C-114.48779819 59.74920942 -121.03190927 56.04901796 -127.5625 52.3125 C-128.15071533 51.98016357 -128.73893066 51.64782715 -129.3449707 51.30541992 C-131.0684165 50.3314015 -132.78625685 49.34748543 -134.50390625 48.36328125 C-135.51267822 47.78876221 -136.5214502 47.21424316 -137.56079102 46.62231445 C-140 45 -140 45 -142 42 C-138.06282052 35.85855455 -133.67140946 30.30529412 -128.75 24.9375 C-128.23083008 24.36555908 -127.71166016 23.79361816 -127.17675781 23.2043457 C-124.82174174 20.67778482 -123.32753904 19.10917968 -120 18 C-120 17.34 -120 16.68 -120 16 C-107.12045034 5.00797055 -92.43480035 -2.86944512 -76 -7 C-74.7625 -7.31904297 -74.7625 -7.31904297 -73.5 -7.64453125 C-49.77555176 -13.06837715 -21.72861868 -11.20534147 0 0 Z " fill="#F4F4F4" transform="translate(297,148)"/>
<path d="M0 0 C0.33 0 0.66 0 1 0 C1 19.8 1 39.6 1 60 C2.98 59.505 2.98 59.505 5 59 C4.01 61.475 4.01 61.475 3 64 C2.67 63.34 2.34 62.68 2 62 C1.34 62 0.68 62 0 62 C0 41.54 0 21.08 0 0 Z " fill="#E5E5E3" transform="translate(279,268)"/>
<path d="M0 0 C0.66 0.33 1.32 0.66 2 1 C1.34 2.32 0.68 3.64 0 5 C-0.66 5 -1.32 5 -2 5 C-2.66 5.66 -3.32 6.32 -4 7 C-4 6.34 -4 5.68 -4 5 C-5.32 5.33 -6.64 5.66 -8 6 C-5.63404067 3.38499232 -3.13950774 1.61000397 0 0 Z " fill="#B9B9B7" transform="translate(329,207)"/>
</svg>
